# xmcd CD database file
#
# Track frame offsets:
#       150
#       18396
#       31561
#       47232
#       64085
#       82454
#       112108
#       128287
#       142883
#       157639
#       173804
#       197956
#
# Disc length: 2863 seconds
#
# Revision: 
# Submitted via: crip v3.7 (http://bach.dynet.com/crip)
#
# Revision: 0
# Processed by: cddbd v1.5.2PL0 Copyright (c) Steve Scherf et al.
#
DISCID=970b2d0c
DTITLE=FearMia - breaking through
DYEAR=2005
DGENRE=rock
TTITLE0=at the end of winter
TTITLE1=3rd block
TTITLE2=all i can do
TTITLE3=letting go
TTITLE4=sugar coated friends
TTITLE5=all the little things
TTITLE6=field of margarine
TTITLE7=no trace
TTITLE8=breaking through
TTITLE9=wake up
TTITLE10=wiley st.
TTITLE11=real enough
EXTD=
EXTT0=
EXTT1=
EXTT2=
EXTT3=
EXTT4=
EXTT5=
EXTT6=
EXTT7=
EXTT8=
EXTT9=
EXTT10=
EXTT11=
PLAYORDER=
